<svg id="Layer_1" data-name="Layer 1" xmlns="http://www.w3.org/2000/svg" viewBox="0 0 456.84 507.24"><defs><style>.cls-1,.cls-13,.cls-2{fill:#fff;}.cls-10,.cls-13,.cls-2,.cls-6,.cls-7,.cls-8,.cls-9{stroke:#010101;}.cls-2,.cls-7,.cls-8{stroke-linecap:round;stroke-linejoin:round;}.cls-11,.cls-13,.cls-2,.cls-6,.cls-7{stroke-width:3px;}.cls-3{fill:#010101;}.cls-10,.cls-11,.cls-12,.cls-4,.cls-6,.cls-7,.cls-8,.cls-9{fill:none;}.cls-4{stroke:#8e68ad;stroke-width:4px;}.cls-10,.cls-11,.cls-12,.cls-13,.cls-4,.cls-6,.cls-9{stroke-miterlimit:10;}.cls-5{fill:#8e68ad;}.cls-10,.cls-12,.cls-8,.cls-9{stroke-width:2px;}.cls-10{opacity:0.75;}.cls-11,.cls-12{stroke:#000;}</style></defs><rect class="cls-1" x="118.43" y="258.61" width="233.53" height="90.25"/><path class="cls-2" d="M115.84,313.35c-48.72-39.11-61.4-93.93-61.4-93.93S62.36,126.54,122.84,74c143-113.78,291.44,31.08,285.84,153.36-1.41,4.23-9.9,55.44-57.72,90.87"/><path class="cls-3" d="M273,82.45h-2.48c-10.59,19.65-67.83,19.65-78.41,0-2.63-.19-112.4,14.94-103.65,170.33,0,0,36.22,81,143.39,75.19,107.18,5.76,143.39-75.19,143.39-75.19C385.29,98.38,273,82.45,273,82.45Z"/><path class="cls-4" d="M142.9,186.85a29.47,29.47,0,0,1,46,8.49"/><path class="cls-4" d="M268,196.14a29.48,29.48,0,0,1,45.39-11.25"/><path class="cls-5" d="M210.48,212.59h38a0,0,0,0,1,0,0v5a19,19,0,0,1-19,19h0a19,19,0,0,1-19-19v-5A0,0,0,0,1,210.48,212.59Z"/><path class="cls-5" d="M351.12,318.77C363.34,414.6,306.23,464.53,244.92,470c92.69-64.47,92.19-134.21,91.93-140.83A84,84,0,0,0,351.12,318.77Z"/><path class="cls-5" d="M336.85,329.21c.26,6.62.76,76.36-91.93,140.83a126.58,126.58,0,0,1-60.31-9.26l.21-.5c121.79-51.16,134.86-117.82,135.71-123.1A121.86,121.86,0,0,0,336.85,329.21Z"/><path class="cls-5" d="M198.59,415.32c12.14-5.24,23.72-10.91,34.49-16.77,34.66-18.89,61-39.87,70.88-55.73a161.77,161.77,0,0,0,16.57-5.64c-.85,5.28-13.92,71.94-135.71,123.1l-.21.5A114.39,114.39,0,0,1,145.74,434l1.16-.29A413.86,413.86,0,0,0,198.59,415.32Z"/><path class="cls-1" d="M304,342.82c-9.92,15.86-36.22,36.84-70.88,55.73h0c-36.73-4.34-68.61-53.83-71.45-58.35C204.15,354.28,260.75,355.12,304,342.82Z"/><path class="cls-5" d="M233.07,398.54h0c-10.77,5.86-22.35,11.53-34.49,16.77-56.2-42-52.45-75.88-51.56-80.74,4.63,2.06,9.51,3.93,14.59,5.61C164.46,344.71,196.34,394.2,233.07,398.54Z"/><path class="cls-5" d="M198.59,415.32a413.86,413.86,0,0,1-51.69,18.43l-1.16.29C121,407.89,107.1,367.75,116,313.91c8,8.25,18.6,15.14,31,20.67C146.14,339.44,142.39,373.32,198.59,415.32Z"/><path class="cls-6" d="M147,334.58c-12.43-5.53-23.07-12.42-31-20.67-8.9,53.84,5,94,29.74,120.13a114.39,114.39,0,0,0,38.87,26.74A126.58,126.58,0,0,0,244.92,470c61.31-5.51,118.42-55.44,106.2-151.27a84,84,0,0,1-14.27,10.44,121.86,121.86,0,0,1-16.32,8A161.77,161.77,0,0,1,304,342.82c-43.21,12.3-99.81,11.46-142.34-2.63C156.54,338.51,151.66,336.64,147,334.58Z"/><path class="cls-7" d="M146.9,433.75a413.86,413.86,0,0,0,51.69-18.43c12.14-5.24,23.72-10.91,34.49-16.77,34.66-18.89,61-39.87,70.88-55.73l.23-.37"/><path class="cls-8" d="M320.58,336.84s0,.11-.05.34c-.85,5.28-13.92,71.94-135.71,123.1"/><path class="cls-8" d="M336.82,328.7l0,.51c.26,6.62.76,76.36-91.93,140.83-.24.18-.49.35-.74.52"/><path class="cls-7" d="M161.41,339.86l.21.33c2.84,4.52,34.72,54,71.45,58.35"/><path class="cls-9" d="M147.15,334s-.05.2-.12.6c-.89,4.86-4.64,38.74,51.56,80.74l.46.34"/><path class="cls-10" d="M130.59,324.66s-12.13,54.7,35.26,103.75"/><path class="cls-5" d="M350.5,327.22l1.54-5.77s50.3,36.92,38.79,95.29a41.11,41.11,0,0,0-14.8-7.47S375.46,362.77,350.5,327.22Z"/><path class="cls-5" d="M350.5,327.22c25,35.55,25.53,82,25.53,82a41.78,41.78,0,0,0-20.31-.13s4.1-39.95-8.82-68.44Z"/><path class="cls-5" d="M339.25,415.75a172,172,0,0,0,4.24-21.1A145.65,145.65,0,0,0,343,355.3l3.89-14.6c12.92,28.49,8.82,68.44,8.82,68.44a50.49,50.49,0,0,0-16,6.72Z"/><path class="cls-1" d="M339.25,415.75l.47.11,51,1.27a101.69,101.69,0,0,1-6.11,19.66c-2.16,5.12-12.67,10.28-17.33,12.18-5.89,2.42-12.36,2.8-18.14-.14-5.46-2.76-12.79-9.77-13.22-16.14a12.4,12.4,0,0,1,.2-2.91C337,425.05,338.12,420.41,339.25,415.75Z"/><path class="cls-1" d="M339.72,415.86a50.49,50.49,0,0,1,16-6.72,41.78,41.78,0,0,1,20.31.13,41.11,41.11,0,0,1,14.8,7.47,2.24,2.24,0,0,1-.08.39Z"/><path class="cls-1" d="M390.83,416.74l.53.41-.61,0A2.24,2.24,0,0,0,390.83,416.74Z"/><path class="cls-11" d="M339.25,415.75a172,172,0,0,0,4.24-21.1A145.65,145.65,0,0,0,343,355.3l3.89-14.6,3.6-13.48,1.54-5.77s50.3,36.92,38.79,95.29a2.24,2.24,0,0,1-.08.39,101.69,101.69,0,0,1-6.11,19.66c-2.16,5.12-12.67,10.28-17.33,12.18-5.89,2.42-12.36,2.8-18.14-.14-5.46-2.76-12.79-9.77-13.22-16.14a12.4,12.4,0,0,1,.2-2.91C337,425.05,338.12,420.41,339.25,415.75Z"/><path class="cls-11" d="M339.72,415.86a50.49,50.49,0,0,1,16-6.72,41.78,41.78,0,0,1,20.31.13,41.11,41.11,0,0,1,14.8,7.47l.53.41"/><path class="cls-12" d="M355.72,409.14s4.1-39.95-8.82-68.44c-.18-.4-.36-.78-.54-1.17"/><path class="cls-9" d="M376,409.27s-.57-46.5-25.53-82"/><rect class="cls-13" x="98.3" y="477.45" width="273.39" height="16.84" rx="7.56"/><path class="cls-5" d="M116.24,322.58l-1.54-5.77s-50.29,36.92-38.79,95.28a41.6,41.6,0,0,1,14.79-7.46S91.28,358.13,116.24,322.58Z"/><path class="cls-5" d="M119.84,336.06l-3.6-13.48c-25,35.55-25.54,82.05-25.54,82.05a42.08,42.08,0,0,1,20.32-.14C111,403.88,107,364.31,119.84,336.06Z"/><path class="cls-5" d="M127.49,411.1A171.88,171.88,0,0,1,123.25,390a145.73,145.73,0,0,1,.49-39.36l-3.9-14.59C107,364.31,111,403.88,111,404.49a50.82,50.82,0,0,1,16,6.72Z"/><path class="cls-1" d="M130.59,425.15c-.84-4.75-2-9.4-3.1-14l-.47.11L76,412.5a101.67,101.67,0,0,0,6.1,19.64c2.16,5.13,12.67,10.29,17.33,12.2,5.9,2.4,12.37,2.78,18.14-.15,5.46-2.77,12.79-9.77,13.21-16.14A11.74,11.74,0,0,0,130.59,425.15Z"/><path class="cls-1" d="M111,404.49a42.08,42.08,0,0,0-20.32.14,41.6,41.6,0,0,0-14.79,7.46,2.26,2.26,0,0,0,.09.41l51-1.29A50.82,50.82,0,0,0,111,404.49Z"/><path class="cls-1" d="M75.91,412.09l-.53.42H76A2.26,2.26,0,0,1,75.91,412.09Z"/><path class="cls-11" d="M127.49,411.1A171.88,171.88,0,0,1,123.25,390a145.73,145.73,0,0,1,.49-39.36l-3.9-14.59-3.6-13.48-1.54-5.77s-50.29,36.92-38.79,95.28a2.26,2.26,0,0,0,.09.41,101.67,101.67,0,0,0,6.1,19.64c2.16,5.13,12.67,10.29,17.33,12.2,5.9,2.4,12.37,2.78,18.14-.15,5.46-2.77,12.79-9.77,13.21-16.14a11.74,11.74,0,0,0-.19-2.9C129.75,420.4,128.63,415.75,127.49,411.1Z"/><path class="cls-11" d="M127,411.21a50.82,50.82,0,0,0-16-6.72,42.08,42.08,0,0,0-20.32.14,41.6,41.6,0,0,0-14.79,7.46l-.53.42"/><line class="cls-11" x1="127.02" y1="411.21" x2="127.03" y2="411.22"/><path class="cls-12" d="M111,404.5h0c-.07-.61-4-40.18,8.82-68.43.17-.39.36-.78.54-1.17"/><path class="cls-9" d="M90.7,404.63s.58-46.5,25.54-82.05"/><path class="cls-13" d="M347.38,360H118.7a27.47,27.47,0,0,0-27.48,27.47l13.06,90H361.79l13.06-90A27.47,27.47,0,0,0,347.38,360Z"/><polygon class="cls-5" points="220.61 427.54 215.63 427.54 220.72 406.77 225.93 406.77 228.46 417.15 231.06 406.77 236.23 406.77 231.04 427.54 225.93 427.54 223.27 417.36 220.61 427.54"/><polygon class="cls-5" points="238.78 417.15 236.23 427.54 241.22 427.54 238.78 417.15"/></svg>