<svg id="New_Layer" data-name="New Layer" xmlns="http://www.w3.org/2000/svg" xmlns:xlink="http://www.w3.org/1999/xlink" viewBox="0 0 581.05 537.7"><defs><style>.cls-1{fill:url(#linear-gradient);}</style><linearGradient id="linear-gradient" x1="63.3" y1="278.8" x2="493.38" y2="278.8" gradientUnits="userSpaceOnUse"><stop offset="0" stop-color="#fff"/></linearGradient></defs><path class="cls-1" d="M233.31,67.55c-42.1,9.71-75.29,28.34-107.68,60.31C81.51,172,63.3,216.51,63.3,280.47c0,59.1,20.64,109.3,62.74,151.4C248.69,554.52,460.4,488.13,491.57,317.31c2-11.74,2.43-21.05.81-21.05-2,0-4.45,7.29-6.07,16.19-4.46,26.31-25.1,63.15-40.48,72.86-7.29,4.46-28.34,10.93-46.15,14.17-38.86,6.88-47.77,10.93-81,40.08-37.24,32-55.86,40.48-85.82,37.64-70.43-6.47-141.27-72.86-159.48-149C56.82,256.59,75,189,126.44,134.75c42.1-44.53,89.46-65.18,151.4-65.18,54.24,0,95.12,15,138.44,50.2,30.36,24.69,33.19,23.88,5.26-1.62C370.94,72.41,298.48,53,233.31,67.55Z"/></svg>